<svg width="24" height="24" viewBox="0 0 24 24" fill="none" xmlns="http://www.w3.org/2000/svg">
<path d="M14.8296 0.294239C15.624 0.305279 16.3819 0.455999 17.0897 0.815999C17.7137 1.13544 18.2225 1.58208 18.5698 2.19768C18.7955 2.60407 18.9435 3.04893 19.0063 3.50952C19.1354 4.39368 19.0049 5.24904 18.7133 6.08544C18.5419 6.576 18.3048 7.03608 18.048 7.488C17.5248 8.40792 16.8526 9.2052 16.0706 9.912C15.0675 10.8197 13.9674 11.6141 12.7903 12.281C12.3343 12.5386 11.8615 12.7548 11.353 12.887C11.0414 12.9712 10.7197 13.0119 10.397 13.008C9.97224 12.9994 9.63984 12.8059 9.38136 12.48C9.14267 12.1875 9.01969 11.8175 9.03576 11.4403C9.03857 11.3354 9.05371 11.2312 9.08088 11.1298C9.23472 10.5833 9.44376 10.0598 9.75624 9.58248C9.99504 9.21792 10.2797 8.89416 10.6519 8.66256C11.0659 8.4048 11.5159 8.29464 12.0026 8.40096C12.1548 8.43663 12.298 8.50321 12.4234 8.59656C12.7438 8.82552 12.727 9.1848 12.5731 9.41424C12.4413 9.61363 12.294 9.80229 12.1325 9.97848C11.8589 10.2732 11.5682 10.5518 11.2846 10.837C11.0335 11.0892 10.7976 11.3539 10.6063 11.6556C10.5072 11.8121 10.4158 11.9717 10.3884 12.1596C10.3538 12.3953 10.4762 12.5558 10.7141 12.5779C10.8371 12.588 10.961 12.5755 11.0796 12.5412C11.4451 12.4402 11.7845 12.2772 12.1178 12.1015C12.6319 11.8296 13.1064 11.4972 13.5689 11.1466C14.1295 10.7215 14.6746 10.2782 15.1769 9.78528C15.749 9.2244 16.259 8.6148 16.6493 7.91136C16.9344 7.39776 17.1444 6.85536 17.2378 6.2736C17.3203 5.7612 17.2742 5.262 17.0369 4.7916C16.9226 4.55909 16.7438 4.36438 16.5218 4.23072C16.4194 4.16903 16.3063 4.12687 16.1885 4.1064C15.7596 4.03032 15.3446 4.09272 14.9369 4.2288C14.5118 4.37088 14.1175 4.57824 13.7342 4.8048C12.9024 5.29824 12.0696 5.79144 11.2769 6.34704C10.8794 6.62544 10.4942 6.9216 10.1047 7.21104C9.75288 7.47264 9.40344 7.73736 9.01896 7.9512C8.70695 8.12887 8.36925 8.25703 8.01792 8.33112C7.58256 8.41944 7.18128 8.33736 6.81264 8.10072C6.43008 7.8552 6.16224 7.51824 6.04464 7.07232C5.96976 6.7908 5.99928 6.51168 6.06384 6.23376C6.15816 5.82576 6.3372 5.45616 6.5604 5.10576C7.1124 4.24032 7.80648 3.50616 8.6136 2.87856C9.80976 1.94856 11.1259 1.2324 12.5496 0.714239C13.2805 0.446872 14.0514 0.304875 14.8296 0.294239Z" fill="#E20010"/>
<path d="M4.98865 20.0808C4.98457 19.8091 4.95361 19.5648 4.79665 19.3529C4.72021 19.2505 4.6144 19.1738 4.49329 19.133C4.18129 19.0212 3.86353 19.0344 3.55369 19.1302C3.30529 19.207 3.06577 19.3116 2.82265 19.405C2.77465 19.4227 2.73097 19.4455 2.67289 19.4714C2.55841 19.1875 2.44585 18.912 2.32801 18.624C2.49865 18.5431 2.65945 18.4606 2.82529 18.3898C3.20737 18.2263 3.60361 18.1142 4.02025 18.089C4.43689 18.0638 4.84801 18.0859 5.22721 18.288C5.65609 18.515 5.96569 18.8429 6.09529 19.32C6.11399 19.3824 6.12518 19.4469 6.12865 19.512C6.14521 20.1314 6.16753 20.7509 6.17017 21.3703C6.17185 21.7937 6.14401 22.2173 6.13153 22.6409C6.1293 22.699 6.10511 22.754 6.06385 22.795C5.76745 23.1214 5.40481 23.347 4.99393 23.4984C4.55333 23.6592 4.08413 23.7266 3.61609 23.6964C3.18409 23.6724 2.81113 23.4955 2.49577 23.202C2.18041 22.9085 1.96009 22.554 1.89865 22.1196C1.81465 21.5246 1.98625 21.0084 2.41393 20.5836C2.68897 20.3105 3.02785 20.1694 3.40969 20.1194C3.83209 20.0645 4.25593 20.0791 4.67977 20.0803L4.98865 20.0808ZM4.93321 21.048C4.90831 21.0431 4.88315 21.0396 4.85785 21.0377C4.71385 21.0348 4.56817 21.0298 4.42345 21.0319C4.24993 21.0346 4.07569 21.0353 3.90313 21.0516C3.72481 21.0686 3.55177 21.1207 3.41353 21.2398C3.18409 21.4375 3.11593 21.6958 3.17185 21.9869C3.24145 22.3469 3.44257 22.5984 3.80113 22.7054C3.98601 22.7607 4.18177 22.769 4.37065 22.7294C4.54621 22.6973 4.70996 22.6187 4.84489 22.5019C4.86773 22.4842 4.88651 22.4618 4.89997 22.4362C4.91342 22.4106 4.92124 22.3825 4.92289 22.3536C4.92841 22.2271 4.94473 22.1009 4.94569 21.9744C4.94761 21.6847 4.94329 21.395 4.94089 21.1054C4.93945 21.0861 4.93688 21.067 4.93321 21.048Z" fill="#E20010"/>
<path d="M19.4239 21.024C18.3943 21.024 17.3839 21.0019 16.3594 21.0288C16.3646 21.1008 16.3678 21.169 16.3742 21.2354C16.4006 21.5074 16.4592 21.7716 16.5742 22.021C16.6635 22.2244 16.8023 22.4022 16.9778 22.5384C17.2562 22.7498 17.574 22.7844 17.9074 22.7414C18.1829 22.7059 18.4394 22.6051 18.6953 22.5036C18.8126 22.4573 18.929 22.4076 19.0553 22.356C19.1753 22.607 19.2929 22.8538 19.4153 23.1077C19.3927 23.124 19.3716 23.1422 19.3481 23.1557C18.8489 23.4518 18.3127 23.6426 17.7336 23.693C17.2056 23.7389 16.7016 23.6522 16.2456 23.3602C15.935 23.1612 15.7176 22.8802 15.5357 22.5658C15.3116 22.1746 15.176 21.7391 15.1382 21.2899C15.0621 20.4709 15.236 19.7083 15.66 19.0022C15.9557 18.5114 16.397 18.2448 16.9495 18.1529C17.4574 18.0636 17.9805 18.1506 18.432 18.3996C18.685 18.5366 18.8611 18.7524 19.0063 18.9943C19.1983 19.3133 19.2994 19.6649 19.3478 20.0292C19.3872 20.323 19.3997 20.6203 19.4232 20.9172C19.4261 20.9477 19.4239 20.9794 19.4239 21.024ZM18.1759 20.0916C18.1162 19.8178 18.0754 19.5379 17.8961 19.3058C17.8062 19.1905 17.6799 19.109 17.5378 19.0745C17.1598 18.9744 16.7798 19.1486 16.6174 19.5065C16.5593 19.6339 16.5252 19.7724 16.483 19.9066C16.464 19.9673 16.4518 20.0304 16.4366 20.0916C16.5382 20.1185 18.072 20.1197 18.1764 20.0923L18.1759 20.0916Z" fill="#E20010"/>
<path d="M12.6696 16.841L13.8982 16.651V18.1598C14.1708 18.1762 14.4305 18.1584 14.6916 18.1865V19.116C14.4276 19.1203 14.1691 19.1124 13.8996 19.1287C13.8996 19.181 13.8996 19.2202 13.8996 19.2593C13.8974 20.154 13.8954 21.0488 13.8938 21.9437C13.8938 22.0846 13.9051 22.2257 13.9178 22.3661C13.938 22.5821 14.0578 22.7191 14.267 22.7717C14.3825 22.801 14.501 22.8175 14.6182 22.8398L14.7358 22.8638V23.6527C14.7225 23.6593 14.7085 23.6639 14.694 23.6666C14.3453 23.6822 13.998 23.6731 13.6608 23.5706C13.3315 23.4713 13.057 23.2913 12.8707 22.9946C12.7649 22.8266 12.7111 22.6378 12.6878 22.4426C12.6738 22.3204 12.6669 22.1975 12.6672 22.0745C12.6672 20.3753 12.6682 18.6762 12.6701 16.9774L12.6696 16.841Z" fill="#E20010"/>
<path d="M20.0993 16.842L21.2873 16.6361V16.8C21.2873 18.3432 21.2879 19.8864 21.2892 21.4296C21.2892 21.7121 21.2916 21.9946 21.2938 22.2773C21.2957 22.5562 21.3974 22.6982 21.6638 22.7813C21.7544 22.8063 21.8463 22.826 21.9391 22.8403C21.9958 22.8509 22.0531 22.8559 22.122 22.8643V23.6702C22.1156 23.6755 22.108 23.6792 22.0999 23.681C21.7625 23.6947 21.4265 23.6892 21.0984 23.5932C20.8996 23.536 20.7145 23.439 20.5543 23.3081C20.256 23.064 20.1346 22.7369 20.1034 22.368C20.0942 22.26 20.0954 22.1508 20.0957 22.0423C20.0957 20.3542 20.0969 18.6662 20.0993 16.9783V16.842Z" fill="#E20010"/>
<path d="M10.2811 23.599H9.08112C9.07968 23.5488 9.07728 23.503 9.07704 23.4576C9.07576 22.7366 9.07472 22.0157 9.07392 21.2947C9.07248 20.7187 9.06888 20.1427 9.06912 19.5667C9.0695 19.4623 9.07752 19.358 9.09312 19.2547C9.11088 19.1369 9.17256 19.0387 9.25824 18.9559C9.7296 18.497 10.2943 18.222 10.9382 18.1034C11.3418 18.0294 11.7554 18.0289 12.1591 18.1018C12.1805 18.1056 12.2018 18.1104 12.2227 18.1157C12.233 18.1183 12.2429 18.1234 12.2628 18.131C12.1265 18.4776 11.9604 18.8088 11.8039 19.1362C11.617 19.1362 11.4398 19.1306 11.2632 19.1374C10.9582 19.1475 10.6587 19.2221 10.3846 19.3562C10.3068 19.3944 10.2778 19.4419 10.278 19.5314C10.2814 20.8434 10.2822 22.1554 10.2804 23.4674L10.2811 23.599Z" fill="#E20010"/>
<path d="M8.196 18.2107C8.20872 20.0088 8.1948 21.7963 8.20632 23.5949H7.032C7.02912 23.5514 7.02336 23.5061 7.02336 23.4607C7.02336 22.3303 7.02336 21.1998 7.02336 20.069C7.02336 19.5509 7.02768 19.0327 7.02984 18.5146C7.02984 18.4752 7.02984 18.4358 7.02984 18.3864L8.196 18.2107Z" fill="#E20010"/>
<path d="M7.56 17.6815C6.98664 17.6801 6.6276 17.1094 6.86544 16.5706C7.0116 16.2401 7.26264 16.1146 7.6248 16.1167C8.11008 16.1208 8.46984 16.6034 8.35416 17.075C8.26176 17.4518 7.95936 17.6825 7.56 17.6815Z" fill="#E20010"/>
</svg>
