<svg width="180" height="180" viewBox="0 0 180 180" fill="none" xmlns="http://www.w3.org/2000/svg">
<rect width="180" height="180" rx="90" fill="#E6F4FF"/>
<path d="M78.2711 137.718C75.4694 137.723 72.742 136.816 70.5005 135.135L70.3614 135.031L41.0931 112.642C39.7376 111.603 38.6 110.306 37.7453 108.828C36.8907 107.349 36.3357 105.716 36.112 104.023C35.8883 102.329 36.0004 100.609 36.4417 98.9585C36.8831 97.3085 37.6451 95.7615 38.6844 94.406C39.7236 93.0504 41.0196 91.9129 42.4985 91.0582C43.9773 90.2035 45.61 89.6486 47.3034 89.4249C48.9967 89.2012 50.7175 89.3132 52.3676 89.7546C54.0176 90.196 55.5646 90.958 56.9201 91.9972L75.8778 106.535L120.676 48.091C121.715 46.736 123.01 45.5989 124.488 44.7446C125.967 43.8903 127.599 43.3355 129.291 43.112C130.984 42.8884 132.704 43.0004 134.353 43.4416C136.003 43.8828 137.549 44.6445 138.904 45.6833L138.908 45.6861L138.63 46.0722L138.915 45.6861C141.649 47.7871 143.437 50.8866 143.888 54.3047C144.339 57.7228 143.415 61.1801 141.32 63.918L88.628 132.63C87.4089 134.213 85.8415 135.494 84.0474 136.374C82.2533 137.254 80.2807 137.708 78.2825 137.702L78.2711 137.718Z" fill="#0478C9"/>
</svg>
