<svg width="24" height="24" viewBox="0 0 24 24" fill="none" xmlns="http://www.w3.org/2000/svg">
<path d="M12.0598 21.4255C17.3854 21.4255 21.7027 17.1082 21.7027 11.7826C21.7027 6.4569 17.3854 2.1396 12.0598 2.1396C6.7341 2.1396 2.4168 6.4569 2.4168 11.7826C2.4168 17.1082 6.7341 21.4255 12.0598 21.4255Z" fill="#50B651"/>
<path opacity="0.663" fill-rule="evenodd" clip-rule="evenodd" d="M21.6732 11.7554C21.6732 17.0978 17.3424 21.4286 12.0012 21.4286C6.66 21.4286 2.328 17.0978 2.328 11.7554C2.328 9.39216 2.39424 9.0408 3.32448 7.69536C3.32448 7.69536 3.27648 9.21504 4.3908 10.1194C5.08368 10.6812 5.8068 10.2756 7.1304 9.666C8.56224 9.006 9.72624 8.58024 10.6344 8.69256C12.0024 8.862 16.219 11.3942 18.4195 10.89C20.1775 10.488 19.992 6.3432 19.992 6.3432C21.912 8.21808 21.6732 9.48528 21.6732 11.7554Z" fill="url(#paint0_linear_155_361)"/>
<path opacity="0.586" fill-rule="evenodd" clip-rule="evenodd" d="M16.152 18.8606C19.6504 15.5699 20.2319 11.8 17.8966 7.55088C17.9084 7.55952 18.0529 7.06096 18.33 6.0552C19.5729 7.56032 20.2338 9.41808 20.3126 11.6285C20.312 14.4915 18.9251 16.9022 16.152 18.8606Z" fill="url(#paint1_linear_155_361)"/>
<path opacity="0.744" fill-rule="evenodd" clip-rule="evenodd" d="M14.4926 6.07512C12.804 5.14056 10.8667 3.26064 11.1242 2.86584C11.3818 2.47104 14.7242 2.53896 16.4131 3.47352C18.102 4.40808 19.5394 7.21152 19.2821 7.60632C19.0248 8.00112 16.1813 7.00968 14.4926 6.07512Z" fill="url(#paint2_radial_155_361)"/>
<path fill-rule="evenodd" clip-rule="evenodd" d="M15.9636 14.1574C14.5627 14.1574 13.427 12.9893 13.427 11.5486C13.427 10.1078 14.5627 8.94 15.9636 8.94C17.3645 8.94 18.5004 10.1078 18.5004 11.5486C18.5004 12.9893 17.3647 14.1574 15.9636 14.1574ZM15.9816 13.3298C16.8559 13.3298 17.5656 12.5323 17.5656 11.5486C17.5656 10.5648 16.8559 9.768 15.9816 9.768C15.1073 9.768 14.3976 10.5655 14.3976 11.549C14.3976 12.5326 15.1073 13.3298 15.9816 13.3298Z" fill="white"/>
<path fill-rule="evenodd" clip-rule="evenodd" d="M10.7299 6.83952H12.5578V14.1283H11.5543V7.63896H10.7299V6.83952Z" fill="white"/>
<path fill-rule="evenodd" clip-rule="evenodd" d="M9.36768 9.01416H10.3164V15.101C10.3164 15.6557 9.73296 16.2334 9.1644 16.482C8.8956 16.5994 8.3996 16.6692 7.6764 16.6913V16.0858C8.38376 16.0069 8.8612 15.8495 9.10872 15.6137C9.25155 15.4152 9.34082 15.1833 9.36792 14.9402V13.152C9.11432 13.6901 8.79496 14.0468 8.40984 14.2222C8.00952 14.4382 7.19472 14.4026 6.86208 14.2222C6.52944 14.0417 6.04152 13.5665 5.81784 12.8587C5.75592 12.6634 5.60184 12.1318 5.61792 11.5685C5.63232 11.0321 5.80992 10.4645 5.95752 10.2312C6.21096 9.8328 6.61056 9.33384 7.21584 9.12528C7.51152 9.02336 8.05952 8.98672 8.85984 9.01536V9.61752C8.26512 9.57736 7.89408 9.59744 7.74672 9.67776C7.52568 9.79776 7.02672 9.94584 6.86208 11.0333C6.69744 12.1207 6.86688 13.0106 7.38888 13.2893C7.56768 13.3853 7.884 13.4988 8.17632 13.3987C8.73792 13.2067 9.2664 12.522 9.30672 12.0581C9.34736 11.5874 9.36768 10.5727 9.36768 9.01416Z" fill="white"/>
<path fill-rule="evenodd" clip-rule="evenodd" d="M21.3701 13.6915C20.4742 18.0055 16.6514 21.247 12.072 21.247C6.82728 21.247 2.57544 16.9951 2.57544 11.7504C2.57544 8.49216 4.21632 5.6172 6.71664 3.9072C4.68504 5.592 3.39144 8.1372 3.39144 10.9834C3.39144 16.0601 7.50696 20.1754 12.5834 20.1754C16.7177 20.1754 20.214 17.4463 21.3701 13.6915Z" fill="url(#paint3_radial_155_361)"/>
<path fill-rule="evenodd" clip-rule="evenodd" d="M12.072 0.504C5.8608 0.504 0.825363 5.5392 0.825363 11.7504C0.825363 17.9616 5.8608 22.997 12.072 22.997C18.2832 22.997 23.3186 17.9616 23.3186 11.7504C23.3186 5.5392 18.2832 0.504 12.072 0.504ZM12.072 21.2472C6.82728 21.2472 2.57544 16.9954 2.57544 11.7506C2.57544 8.4924 4.21632 5.61744 6.71664 3.90744C8.29351 2.82746 10.1608 2.2509 12.072 2.25384C17.3167 2.25384 21.5686 6.50544 21.5686 11.7504C21.5689 12.4025 21.5024 13.053 21.3701 13.6915C20.4742 18.0055 16.6514 21.247 12.072 21.247V21.2472Z" fill="white"/>
<defs>
<linearGradient id="paint0_linear_155_361" x1="11.6275" y1="7.66416" x2="12.8674" y2="18.8609" gradientUnits="userSpaceOnUse">
<stop stop-color="#123214"/>
<stop offset="0.46" stop-color="#3E7C37"/>
<stop offset="0.91" stop-color="#5FBB46"/>
</linearGradient>
<linearGradient id="paint1_linear_155_361" x1="18.7902" y1="6.93631" x2="18.7902" y2="15.9904" gradientUnits="userSpaceOnUse">
<stop stop-color="white" stop-opacity="0"/>
<stop offset="0.64" stop-color="white" stop-opacity="0.43"/>
<stop offset="1" stop-color="white" stop-opacity="0.42"/>
</linearGradient>
<radialGradient id="paint2_radial_155_361" cx="0" cy="0" r="1" gradientUnits="userSpaceOnUse" gradientTransform="translate(15.4087 5.29951) rotate(26.7606) scale(4.76504 1.98455)">
<stop offset="0.13" stop-color="white"/>
<stop offset="0.29" stop-color="white" stop-opacity="0.69"/>
<stop offset="0.45" stop-color="white" stop-opacity="0.4"/>
<stop offset="0.59" stop-color="white" stop-opacity="0.18"/>
<stop offset="0.69" stop-color="white" stop-opacity="0.05"/>
<stop offset="0.74" stop-color="white" stop-opacity="0"/>
</radialGradient>
<radialGradient id="paint3_radial_155_361" cx="0" cy="0" r="1" gradientUnits="userSpaceOnUse" gradientTransform="translate(13.7004 9.56236) rotate(39.84) scale(10.6783 11.6394)">
<stop offset="0.86" stop-opacity="0"/>
<stop offset="0.98" stop-opacity="0.47"/>
<stop offset="1"/>
</radialGradient>
</defs>
</svg>
