<svg width="24" height="24" viewBox="0 0 24 24" fill="none" xmlns="http://www.w3.org/2000/svg">
<g clip-path="url(#clip0_155_393)">
<path d="M0.24 0.24024H23.76V23.7595H0.24V0.24024Z" fill="#FFC325"/>
<path d="M0.597599 12C0.597599 9.5436 5.70264 7.55208 12 7.55208C18.2974 7.55208 23.4024 9.54408 23.4024 12.0002C23.4024 14.4564 18.2976 16.4474 12 16.4474C5.7024 16.4474 0.597599 14.4562 0.597599 12Z" fill="#006891"/>
<path d="M0.597599 12C0.597599 9.5436 5.70264 7.55208 12 7.55208C18.2974 7.55208 23.4024 9.54408 23.4024 12.0002C23.4024 14.4564 18.2976 16.4474 12 16.4474C5.7024 16.4474 0.597599 14.4562 0.597599 12Z" stroke="#006891" stroke-width="1.40509" stroke-miterlimit="3.8636"/>
<path fill-rule="evenodd" clip-rule="evenodd" d="M4.77648 14.1619L5.95992 9.74424H7.82784V12.3425H7.84008L9.10728 9.74424H11.0047L9.82128 14.1619H8.58792L9.34656 11.3282H9.33432L7.82784 14.1619H6.84024V11.3282H6.82008L6.06144 14.1619H4.77648Z" fill="white"/>
<path fill-rule="evenodd" clip-rule="evenodd" d="M11.3386 14.2493L11.5066 13.6214H12.8678L12.6996 14.2493H11.3386Z" fill="#EE4034"/>
<path fill-rule="evenodd" clip-rule="evenodd" d="M11.5536 13.445L12.2422 10.8766H11.0047L11.3083 9.74424H15.1442L14.8409 10.8766H13.6034L12.9151 13.4443L11.5536 13.445Z" fill="#FFC325"/>
<path fill-rule="evenodd" clip-rule="evenodd" d="M14.2646 14.1619L15.4474 9.74424H16.7842L17.3873 12.108H17.399L18.0322 9.74424H19.2679L18.085 14.1619H16.8132L16.1582 11.7492H16.1465L15.5004 14.1619H14.2646Z" fill="white"/>
</g>
<defs>
<clipPath id="clip0_155_393">
<rect width="24" height="24" fill="white"/>
</clipPath>
</defs>
</svg>
