<svg width="24" height="24" viewBox="0 0 24 24" fill="none" xmlns="http://www.w3.org/2000/svg">
<path d="M0.852 1.5C0.626279 1.50079 0.410028 1.59081 0.250418 1.75042C0.0908085 1.91003 0.000790624 2.12628 0 2.352L0 10.0425C0 10.707 0.54 11.25 1.2075 11.25H8.5455C9.21 11.25 9.753 10.71 9.753 10.0425V2.352C9.75142 2.126 9.66074 1.90976 9.50065 1.75023C9.34056 1.59071 9.124 1.50078 8.898 1.5H0.852ZM1.2075 2.25H8.5425C8.793 2.25 9 2.457 9 2.7075V4.398C9 4.455 8.955 4.5 8.898 4.5H0.852C0.824948 4.5 0.799004 4.48925 0.779875 4.47012C0.760746 4.451 0.75 4.42505 0.75 4.398V2.7075C0.75 2.457 0.957 2.25 1.2075 2.25ZM11.625 3V3.75H17.106C17.598 3.75 18 4.152 18 4.644V6.2985C17.7387 6.11161 17.4272 6.0076 17.106 6H11.625V6.75H17.106C17.598 6.75 18 7.152 18 7.644V9.33C17.7388 9.14257 17.4273 9.03804 17.106 9.03H11.625V9.78H17.106C17.598 9.78 18 10.179 18 10.671V12H15.144C14.238 12 13.5 12.738 13.5 13.644V18.609C13.5 19.515 14.238 20.253 15.144 20.253H18V22.503H16.125V23.253H20.625V22.503H18.75V20.253H21.606C22.512 20.253 23.25 19.515 23.25 18.609V13.644C23.25 12.738 22.512 12 21.606 12H18.75V4.644C18.75 3.738 18.012 3 17.106 3H11.625ZM0.852 5.25H8.898C8.955 5.25 8.997 5.295 8.997 5.352V7.398C8.99701 7.42454 8.98668 7.45004 8.96819 7.46908C8.94971 7.48813 8.92453 7.49922 8.898 7.5H0.852C0.824948 7.5 0.799004 7.48925 0.779875 7.47013C0.760746 7.451 0.75 7.42505 0.75 7.398V5.352C0.75 5.295 0.795 5.25 0.852 5.25ZM0.75 8.229C0.7845 8.2335 0.816 8.25 0.852 8.25H8.898C8.934 8.25 8.9625 8.235 8.997 8.229V10.044C8.997 10.1647 8.94916 10.2804 8.86397 10.3659C8.77878 10.4514 8.66318 10.4996 8.5425 10.5H1.2075C1.08629 10.4996 0.970148 10.4513 0.884436 10.3656C0.798723 10.2799 0.750395 10.1637 0.75 10.0425V8.229ZM15.141 12.75H21.606C22.098 12.75 22.5 13.152 22.5 13.644V18.606C22.4996 18.843 22.4053 19.0701 22.2377 19.2377C22.0701 19.4053 21.843 19.4996 21.606 19.5H15.141C14.904 19.4996 14.6769 19.4053 14.5093 19.2377C14.3417 19.0701 14.2474 18.843 14.247 18.606V13.644C14.247 13.152 14.649 12.75 15.141 12.75Z" fill="#C97A04"/>
</svg>
