<svg width="180" height="180" viewBox="0 0 180 180" fill="none" xmlns="http://www.w3.org/2000/svg">
<rect width="180" height="180" rx="90" fill="#E6F4FF"/>
<path d="M133.647 73.6905V121.784C133.647 124.499 131.447 126.699 128.731 126.699H51.2668C48.5518 126.699 46.3516 124.499 46.3516 121.784V73.6905C46.3516 72.8217 46.5757 72.0075 46.9729 71.2998L48.8779 69.3942L86.3323 31.9401C88.3573 29.9151 91.6408 29.9151 93.6658 31.9401L131.12 69.3945L133.025 71.3001C133.435 72.0302 133.649 72.8535 133.647 73.6905Z" fill="#F4B071"/>
<path d="M126.927 47.3976V122.144C126.927 124.66 124.888 126.701 122.37 126.701H57.6273C55.1055 126.701 53.0703 124.66 53.0703 122.144V47.3976C53.0703 44.8821 55.1055 42.8409 57.6273 42.8409H122.37C124.888 42.8409 126.927 44.8821 126.927 47.3976Z" fill="#DAEFFD"/>
<path d="M92.6949 68.3238C92.6949 69.5265 91.7166 70.5051 90.5109 70.5051H69.9225C69.344 70.505 68.7892 70.2752 68.3802 69.8661C67.9711 69.4571 67.7413 68.9023 67.7412 68.3238C67.7412 67.719 67.9842 67.1751 68.3793 66.7803C68.5819 66.5775 68.8225 66.4167 69.0874 66.3072C69.3523 66.1977 69.6362 66.1416 69.9228 66.1422H90.5112C91.7169 66.1425 92.6949 67.1175 92.6949 68.3238ZM112.257 59.9478C112.257 61.1505 111.278 62.1291 110.072 62.1291H69.9225C69.344 62.129 68.7892 61.8992 68.3802 61.4901C67.9711 61.0811 67.7413 60.5263 67.7412 59.9478C67.7412 59.346 67.9842 58.7997 68.3793 58.4043C68.5817 58.2011 68.8223 58.0398 69.0871 57.9298C69.352 57.8198 69.636 57.7632 69.9228 57.7632H110.072C110.652 57.7633 111.207 57.9936 111.617 58.4032C112.026 58.8129 112.257 59.3685 112.257 59.9478ZM92.6949 88.9605C92.6949 90.1635 91.7166 91.1418 90.5109 91.1418H69.9225C69.344 91.1418 68.7892 90.912 68.3801 90.5029C67.971 90.0938 67.7412 89.539 67.7412 88.9605C67.7412 88.356 67.9842 87.8118 68.3793 87.417C68.5819 87.2143 68.8226 87.0536 69.0875 86.9442C69.3523 86.8347 69.6362 86.7787 69.9228 86.7792H90.5112C91.7169 86.7795 92.6949 87.7545 92.6949 88.9605ZM112.257 80.5848C112.257 81.7875 111.278 82.7661 110.072 82.7661H69.9225C69.344 82.766 68.7892 82.5362 68.3802 82.1271C67.9711 81.7181 67.7413 81.1633 67.7412 80.5848C67.7412 79.983 67.9842 79.4367 68.3793 79.0413C68.5817 78.8381 68.8223 78.6769 69.0872 78.5669C69.352 78.457 69.636 78.4004 69.9228 78.4005H110.072C110.652 78.4006 111.207 78.6308 111.617 79.0404C112.026 79.45 112.257 80.0055 112.257 80.5848ZM92.6949 109.598C92.6949 110.8 91.7166 111.779 90.5109 111.779H69.9225C69.344 111.779 68.7893 111.549 68.3802 111.14C67.9711 110.731 67.7413 110.176 67.7412 109.598C67.7412 108.993 67.9842 108.449 68.3793 108.054C68.5819 107.852 68.8225 107.691 69.0874 107.581C69.3523 107.472 69.6362 107.416 69.9228 107.416H90.5112C91.7169 107.416 92.6949 108.391 92.6949 109.598ZM112.257 101.222C112.257 102.425 111.278 103.403 110.072 103.403H69.9225C69.344 103.403 68.7892 103.173 68.3801 102.764C67.971 102.355 67.7412 101.8 67.7412 101.222C67.7412 100.62 67.9842 100.074 68.3793 99.6783C68.5817 99.4751 68.8223 99.3139 69.0872 99.204C69.352 99.094 69.636 99.0374 69.9228 99.0375H110.072C110.652 99.0376 111.207 99.2678 111.617 99.6774C112.026 100.087 112.257 100.643 112.257 101.222Z" fill="#F7F7F7"/>
<path d="M97.1561 122.649L93.6662 126.139C91.6412 128.164 88.3577 128.164 86.3327 126.139L82.8428 122.649H97.1561Z" fill="url(#paint0_linear_151_276)"/>
<path d="M133.647 82.8861V130.979C133.647 133.693 131.447 135.895 128.731 135.895H51.2668C48.5518 135.895 46.3516 133.693 46.3516 130.979V82.8861C46.3516 82.0818 46.5445 81.3231 46.8883 80.6526L86.3323 120.097C88.3573 122.122 91.6408 122.122 93.6658 120.097L133.11 80.6526C133.464 81.3436 133.648 82.1094 133.647 82.8861Z" fill="#0478C9"/>
<defs>
<linearGradient id="paint0_linear_151_276" x1="89.9993" y1="122.649" x2="89.9993" y2="127.657" gradientUnits="userSpaceOnUse">
<stop offset="0.288" stop-color="#E8F0F4"/>
<stop offset="0.921" stop-color="#C2E4F3"/>
<stop offset="1" stop-color="#A6E3FF"/>
</linearGradient>
</defs>
</svg>
