<svg width="24" height="24" viewBox="0 0 24 24" fill="none" xmlns="http://www.w3.org/2000/svg">
<path fill-rule="evenodd" clip-rule="evenodd" d="M7.84032 21.4613C8.14816 21.4613 8.37312 21.5265 8.5152 21.6569C8.65728 21.7873 8.7284 21.9901 8.72856 22.2653V23.7403H8.2668V22.3277C8.2668 22.0166 8.0924 21.8611 7.7436 21.8611C7.59294 21.8599 7.44502 21.9015 7.31712 21.9811C7.33925 22.0742 7.34965 22.1696 7.34808 22.2653V23.7403H6.88632V22.3277C6.88632 22.0166 6.71192 21.8611 6.36312 21.8611C6.20397 21.8613 6.04612 21.8899 5.89704 21.9456V23.7403H5.43552V21.6924C5.58832 21.6164 5.75007 21.56 5.91696 21.5244C6.09497 21.4829 6.27705 21.4613 6.45984 21.4601C6.74784 21.4601 6.96184 21.5161 7.10184 21.6281C7.33242 21.5179 7.58478 21.4609 7.84032 21.4613ZM10.3106 23.808C9.95864 23.808 9.69408 23.7073 9.51696 23.5058C9.33984 23.3044 9.2512 23.0112 9.25104 22.6262C9.25104 21.8472 9.60304 21.4578 10.307 21.4579C10.6618 21.4579 10.9285 21.5578 11.1072 21.7577C11.2859 21.9575 11.3754 22.247 11.3755 22.6262C11.3755 23.0051 11.2832 23.2968 11.0986 23.5013C10.9139 23.7058 10.6513 23.808 10.3106 23.808ZM10.3061 23.4125C10.7107 23.4125 10.913 23.1504 10.9128 22.6262C10.9128 22.3656 10.8648 22.1709 10.7688 22.0421C10.6728 21.9133 10.5189 21.8488 10.307 21.8486C10.0931 21.8486 9.94 21.9146 9.84768 22.0464C9.75536 22.1782 9.7092 22.3715 9.7092 22.6262C9.7092 22.8808 9.7568 23.0755 9.852 23.2104C9.9472 23.3453 10.0986 23.4123 10.3061 23.4115V23.4125ZM12.917 21.4622C13.2454 21.4622 13.4945 21.5614 13.6644 21.7598C13.8343 21.9582 13.9195 22.2393 13.92 22.603C13.92 23.0414 13.8182 23.3516 13.6145 23.5337C13.4108 23.7158 13.1519 23.8072 12.8378 23.808C12.2076 23.808 11.8925 23.6392 11.8925 23.3016V20.6172H12.3499V21.6C12.4419 21.556 12.5385 21.5225 12.6379 21.4999C12.7292 21.4765 12.8228 21.4635 12.917 21.4613V21.4622ZM12.8026 23.4036C13.0426 23.4036 13.2106 23.334 13.3066 23.1948C13.4026 23.0556 13.4506 22.8646 13.4506 22.6217C13.4506 22.373 13.4 22.1835 13.2989 22.0531C13.1978 21.9227 13.0476 21.8576 12.8484 21.8578C12.7616 21.8583 12.6752 21.8695 12.5911 21.8909C12.5069 21.9112 12.4261 21.9435 12.3511 21.9869V23.1869C12.3503 23.3309 12.5008 23.4028 12.8026 23.4026V23.4036ZM14.4418 20.7336H14.9342V21.1558H14.4418V20.7336ZM14.455 21.5244H14.9167L14.921 23.7413H14.455V21.5244ZM15.571 23.7413V20.6662H16.0284V23.7403L15.571 23.7413ZM17.5752 21.456C17.9182 21.456 18.1696 21.568 18.3293 21.792C18.489 22.016 18.5674 22.3292 18.5645 22.7316H17.016C17.0309 22.9508 17.0949 23.1174 17.208 23.2315C17.3211 23.3456 17.4816 23.4026 17.6894 23.4024C17.9384 23.4027 18.1835 23.34 18.4018 23.2202V23.6556C18.1731 23.7572 17.9112 23.808 17.616 23.808C17.2848 23.808 17.0246 23.7066 16.8355 23.5037C16.6464 23.3008 16.5519 23.0128 16.5521 22.6397C16.5521 22.2576 16.6414 21.9652 16.8202 21.7625C16.9989 21.5598 17.2506 21.4576 17.5752 21.456ZM17.562 21.84C17.4066 21.84 17.285 21.8815 17.1972 21.9646C17.1094 22.0476 17.0522 22.1882 17.0256 22.3865H18.0941C18.0734 22.1969 18.0206 22.0585 17.9357 21.9713C17.8507 21.8841 17.7262 21.8403 17.562 21.84ZM13.152 3.56304C12.6427 3.43712 12.2507 3.37408 11.976 3.37392C9.92664 3.37392 8.26512 5.02992 8.26512 7.07208C8.26512 9.11424 9.92736 10.7705 11.976 10.7705C14.0246 10.7705 15.6871 9.11448 15.6871 7.07208C15.6873 6.77372 15.6513 6.47645 15.5801 6.18672L18.5304 5.39208C18.7694 6.30065 18.8146 7.24934 18.663 8.17652C18.5115 9.1037 18.1666 9.98863 17.6508 10.7738L12.7654 19.8312H8.23944L11.4554 13.9032C11.473 13.8706 11.4214 13.7986 11.3782 13.7947C7.9416 13.4827 5.24976 10.6027 5.24976 7.09656C5.24976 3.3816 8.27136 0.37032 11.999 0.37032C12.6814 0.369569 13.36 0.47209 14.0117 0.6744L13.152 3.56304Z" fill="#006E53"/>
<path d="M11.9537 9.10608C13.077 9.10608 13.9877 8.19543 13.9877 7.07208C13.9877 5.94873 13.077 5.03808 11.9537 5.03808C10.8303 5.03808 9.91968 5.94873 9.91968 7.07208C9.91968 8.19543 10.8303 9.10608 11.9537 9.10608Z" fill="#D6E806"/>
<path d="M15.467 5.68536C15.1147 4.80326 14.4355 4.09116 13.571 3.69744M16.7616 5.13048C16.2639 3.90708 15.3229 2.91653 14.1266 2.3568M18.0098 4.71456C17.3759 3.10171 16.1294 1.80536 14.5426 1.1088" stroke="#D6E806" stroke-width="0.443025" stroke-linecap="round"/>
</svg>
