<svg width="24" height="24" viewBox="0 0 24 24" fill="none" xmlns="http://www.w3.org/2000/svg">
<path d="M2.23182 6.55226C2.23182 5.97386 2.7007 5.52 3.2791 5.52H22.13C22.7084 5.52 23.1773 5.04362 23.1773 4.46522" stroke="#0478C9" stroke-width="0.872727" stroke-miterlimit="10"/>
<path d="M4.96517 13.9845C4.28905 13.9845 3.74095 13.4364 3.74095 12.7603C3.74095 12.0842 4.28905 11.5361 4.96517 11.5361C5.64128 11.5361 6.18938 12.0842 6.18938 12.7603C6.18938 13.4364 5.64128 13.9845 4.96517 13.9845Z" stroke="#0478C9" stroke-width="0.872727" stroke-miterlimit="10"/>
<path d="M0.807274 14.9018C0.807274 15.4561 1.25664 15.9055 1.81091 15.9055H8.18182C8.73609 15.9055 9.18546 15.4561 9.18546 14.9018V10.7127C9.18546 10.1584 8.73609 9.70909 8.18182 9.70909H1.81091C1.25664 9.70909 0.807274 10.1584 0.807274 10.7127V14.9018Z" stroke="#0478C9" stroke-width="0.872727" stroke-miterlimit="10"/>
<path d="M8.21001 15.9055C8.76432 15.9055 9.22909 15.4261 9.22909 14.8718V10.6827C9.22909 10.1284 8.76436 9.70909 8.21001 9.70909H2.24727V4.39907C2.24727 3.82067 2.70074 3.38182 3.2791 3.38182H22.13C22.7084 3.38182 23.1927 3.82071 23.1927 4.39907V19.5845C23.1927 20.1629 22.7084 20.6618 22.13 20.6618H3.2791C2.7007 20.6618 2.24727 20.1629 2.24727 19.5845V15.9055H8.21001Z" stroke="#0478C9" stroke-width="0.872727" stroke-miterlimit="10"/>
</svg>
